<svg xmlns="http://www.w3.org/2000/svg" x="0px" y="0px" width="100" height="100" viewBox="0,0,256,256">
<g fill="#ffffff" fill-rule="nonzero" stroke="none" stroke-width="1" stroke-linecap="butt" stroke-linejoin="miter" stroke-miterlimit="10" stroke-dasharray="" stroke-dashoffset="0" font-family="none" font-weight="none" font-size="none" text-anchor="none" style="mix-blend-mode: normal"><g transform="scale(10.66667,10.66667)"><path d="M8,2.39844c0.10156,0 0.10156,0 0.19922,0.10156c0.10156,0.10156 0.40234,0.39844 0.40234,0.60156c0,0.19922 0,0.69922 0.09766,1.09766c0.19922,0.5 0.40234,1.80078 0.69922,2.5c0.30078,0.69922 0.40234,1.10156 0.10156,1.5c-0.30078,0.5 -2.19922,2.40234 -2.19922,2.40234c0,0 0.5,1 1.09766,1.59766c0.5,0.69922 1.30078,1.69922 2.30078,2.5c1,0.90234 2.10156,1.69922 3.19922,2.19922c1.10156,-1.09766 2,-2 2.30078,-2.19922c0.30078,-0.19922 0.30078,-0.30078 0.80078,-0.09766c0.5,0.19922 1.19922,0.5 2,0.59766c0.69922,0.10156 1.5,0.19922 2,0.30078c0.5,0.10156 0.5,0.10156 0.60156,0.30078c0.19922,0.19922 0.29688,0.5 0.29688,0.59766c0,0.10156 0,0.40234 0,1.40234c0,1 0,2.39844 0,2.69922c0,0.30078 0,0.30078 -0.09766,0.5c-0.10156,0.19922 -0.19922,0.69922 -0.19922,0.69922c0,0.10156 -0.5,0.30078 -0.80078,0.30078c-0.30078,0 -1.40234,0 -2.10156,-0.10156c-0.69922,-0.09766 -2.59766,-0.5 -3.30078,-0.79687c-0.69922,-0.20312 -3,-1 -5.79687,-3.10156c-2.60156,-2 -4.5,-4.69922 -5.60156,-6.89844c-1.10156,-2.20312 -1.69922,-4.60156 -1.80078,-5.80078c-0.19922,-1.19922 -0.19922,-1.69922 -0.19922,-2c0.10156,-0.30078 0.39844,-0.60156 0.60156,-0.69922c0.19922,-0.10156 0.5,-0.20312 0.79688,-0.20312c0.30078,0 1.10156,0 2.20312,0c1.09766,0 2.39844,0 2.39844,0z"></path></g></g>
</svg>